<svg width="820" height="248" viewBox="0 0 820 248" fill="none" xmlns="http://www.w3.org/2000/svg">
<path d="M78.4055 107.916V227.594H56.0471V88.6191H76.6428L78.4055 107.916ZM143.811 137.882V139.83C143.811 147.128 142.945 153.901 141.213 160.147C139.543 166.332 137.038 171.744 133.698 176.383C130.42 180.96 126.369 184.516 121.545 187.052C116.721 189.588 111.154 190.855 104.846 190.855C98.5991 190.855 93.1255 189.711 88.425 187.423C83.7863 185.073 79.8589 181.764 76.6428 177.496C73.4266 173.229 70.829 168.219 68.8498 162.467C66.9325 156.653 65.5718 150.283 64.7678 143.355V135.841C65.5718 128.481 66.9325 121.801 68.8498 115.802C70.829 109.802 73.4266 104.638 76.6428 100.309C79.8589 95.9792 83.7863 92.6393 88.425 90.2891C93.0637 87.9388 98.4754 86.7637 104.66 86.7637C110.969 86.7637 116.566 88.0007 121.452 90.4746C126.338 92.8867 130.451 96.3503 133.791 100.865C137.131 105.318 139.636 110.699 141.306 117.008C142.976 123.255 143.811 130.213 143.811 137.882ZM121.452 139.83V137.882C121.452 133.243 121.019 128.945 120.154 124.986C119.288 120.966 117.927 117.441 116.071 114.41C114.216 111.38 111.835 109.029 108.928 107.359C106.083 105.628 102.65 104.762 98.6301 104.762C94.6717 104.762 91.27 105.442 88.425 106.803C85.5799 108.102 83.1988 109.926 81.2814 112.276C79.3641 114.627 77.8797 117.379 76.8283 120.533C75.7769 123.626 75.0347 126.996 74.6017 130.646V148.644C75.3439 153.097 76.6118 157.179 78.4055 160.89C80.1991 164.601 82.7349 167.569 86.0129 169.796C89.3527 171.961 93.6203 173.043 98.8156 173.043C102.836 173.043 106.268 172.177 109.113 170.445C111.959 168.714 114.278 166.332 116.071 163.302C117.927 160.209 119.288 156.653 120.154 152.633C121.019 148.613 121.452 144.345 121.452 139.83ZM181.065 88.6191V189H158.614V88.6191H181.065ZM157.129 62.2715C157.129 58.8698 158.243 56.0557 160.469 53.8291C162.758 51.5407 165.912 50.3965 169.932 50.3965C173.89 50.3965 177.014 51.5407 179.302 53.8291C181.591 56.0557 182.735 58.8698 182.735 62.2715C182.735 65.6113 181.591 68.3945 179.302 70.6211C177.014 72.8477 173.89 73.9609 169.932 73.9609C165.912 73.9609 162.758 72.8477 160.469 70.6211C158.243 68.3945 157.129 65.6113 157.129 62.2715ZM277.508 171.188V189H202.733V171.188H277.508ZM275.467 102.535L210.34 189H195.868V174.62L260.624 88.6191H275.467V102.535ZM266.839 88.6191V106.432H196.981V88.6191H266.839ZM367.365 171.188V189H292.59V171.188H367.365ZM365.324 102.535L300.197 189H285.724V174.62L350.48 88.6191H365.324V102.535ZM356.696 88.6191V106.432H286.838V88.6191H356.696ZM422.339 190.855C414.917 190.855 408.206 189.649 402.207 187.237C396.27 184.763 391.198 181.331 386.992 176.939C382.848 172.548 379.663 167.384 377.437 161.446C375.21 155.509 374.097 149.107 374.097 142.242V138.531C374.097 130.676 375.241 123.564 377.529 117.193C379.818 110.823 383.003 105.38 387.085 100.865C391.167 96.2884 395.991 92.7939 401.558 90.3818C407.124 87.9697 413.154 86.7637 419.648 86.7637C426.823 86.7637 433.101 87.9697 438.481 90.3818C443.862 92.7939 448.315 96.1956 451.841 100.587C455.428 104.916 458.088 110.081 459.819 116.08C461.613 122.079 462.51 128.697 462.51 135.934V145.489H384.951V129.439H440.43V127.677C440.306 123.657 439.502 119.884 438.018 116.358C436.595 112.833 434.399 109.988 431.431 107.823C428.462 105.659 424.504 104.576 419.556 104.576C415.845 104.576 412.536 105.38 409.629 106.988C406.784 108.535 404.403 110.792 402.485 113.761C400.568 116.729 399.084 120.317 398.032 124.522C397.043 128.666 396.548 133.336 396.548 138.531V142.242C396.548 146.633 397.135 150.715 398.311 154.488C399.548 158.199 401.341 161.446 403.691 164.229C406.042 167.013 408.887 169.208 412.227 170.816C415.566 172.363 419.37 173.136 423.638 173.136C429.019 173.136 433.812 172.053 438.018 169.889C442.223 167.724 445.872 164.662 448.965 160.704L460.747 172.115C458.582 175.27 455.768 178.3 452.305 181.207C448.841 184.052 444.604 186.371 439.595 188.165C434.647 189.959 428.895 190.855 422.339 190.855ZM520.267 88.6191V104.947H463.675V88.6191H520.267ZM480.003 64.0342H502.362V161.261C502.362 164.353 502.794 166.734 503.66 168.404C504.588 170.012 505.856 171.095 507.464 171.651C509.072 172.208 510.959 172.486 513.123 172.486C514.669 172.486 516.154 172.394 517.576 172.208C518.999 172.022 520.143 171.837 521.009 171.651L521.102 188.722C519.246 189.278 517.082 189.773 514.608 190.206C512.195 190.639 509.412 190.855 506.258 190.855C501.125 190.855 496.579 189.959 492.62 188.165C488.662 186.31 485.57 183.31 483.343 179.166C481.116 175.022 480.003 169.518 480.003 162.652V64.0342ZM577.838 88.6191V104.947H521.246V88.6191H577.838ZM537.575 64.0342H559.933V161.261C559.933 164.353 560.366 166.734 561.232 168.404C562.16 170.012 563.427 171.095 565.036 171.651C566.644 172.208 568.53 172.486 570.695 172.486C572.241 172.486 573.725 172.394 575.148 172.208C576.57 172.022 577.715 171.837 578.58 171.651L578.673 188.722C576.818 189.278 574.653 189.773 572.179 190.206C569.767 190.639 566.984 190.855 563.829 190.855C558.696 190.855 554.15 189.959 550.192 188.165C546.233 186.31 543.141 183.31 540.914 179.166C538.688 175.022 537.575 169.518 537.575 162.652V64.0342ZM582.9 139.923V137.789C582.9 130.553 583.951 123.842 586.054 117.657C588.157 111.41 591.188 105.999 595.146 101.422C599.166 96.7832 604.052 93.196 609.804 90.6602C615.618 88.0625 622.174 86.7637 629.472 86.7637C636.832 86.7637 643.388 88.0625 649.14 90.6602C654.954 93.196 659.871 96.7832 663.891 101.422C667.911 105.999 670.973 111.41 673.076 117.657C675.179 123.842 676.23 130.553 676.23 137.789V139.923C676.23 147.159 675.179 153.87 673.076 160.055C670.973 166.24 667.911 171.651 663.891 176.29C659.871 180.867 654.985 184.454 649.233 187.052C643.481 189.588 636.956 190.855 629.658 190.855C622.298 190.855 615.711 189.588 609.897 187.052C604.145 184.454 599.259 180.867 595.239 176.29C591.219 171.651 588.157 166.24 586.054 160.055C583.951 153.87 582.9 147.159 582.9 139.923ZM605.258 137.789V139.923C605.258 144.438 605.722 148.705 606.65 152.726C607.578 156.746 609.031 160.271 611.01 163.302C612.989 166.332 615.525 168.714 618.618 170.445C621.71 172.177 625.39 173.043 629.658 173.043C633.802 173.043 637.389 172.177 640.419 170.445C643.512 168.714 646.048 166.332 648.027 163.302C650.006 160.271 651.46 156.746 652.387 152.726C653.377 148.705 653.872 144.438 653.872 139.923V137.789C653.872 133.336 653.377 129.13 652.387 125.172C651.46 121.152 649.975 117.595 647.934 114.503C645.955 111.41 643.419 108.998 640.327 107.267C637.296 105.473 633.678 104.576 629.472 104.576C625.266 104.576 621.617 105.473 618.525 107.267C615.494 108.998 612.989 111.41 611.01 114.503C609.031 117.595 607.578 121.152 606.65 125.172C605.722 129.13 605.258 133.336 605.258 137.789ZM745.584 161.817C745.584 159.591 745.027 157.581 743.914 155.787C742.801 153.932 740.667 152.262 737.513 150.777C734.42 149.293 729.843 147.932 723.782 146.695C718.463 145.52 713.577 144.129 709.124 142.521C704.733 140.851 700.96 138.84 697.805 136.49C694.651 134.14 692.208 131.357 690.476 128.141C688.745 124.924 687.879 121.214 687.879 117.008C687.879 112.926 688.776 109.06 690.569 105.411C692.363 101.762 694.93 98.5459 698.269 95.7627C701.609 92.9795 705.66 90.7839 710.423 89.1758C715.247 87.5677 720.628 86.7637 726.565 86.7637C734.977 86.7637 742.182 88.1862 748.181 91.0312C754.243 93.8145 758.881 97.6182 762.097 102.442C765.314 107.205 766.922 112.586 766.922 118.585H744.563C744.563 115.925 743.883 113.451 742.522 111.163C741.223 108.813 739.244 106.926 736.585 105.504C733.925 104.02 730.585 103.277 726.565 103.277C722.731 103.277 719.545 103.896 717.01 105.133C714.536 106.308 712.68 107.854 711.443 109.771C710.268 111.689 709.68 113.792 709.68 116.08C709.68 117.75 709.99 119.265 710.608 120.626C711.289 121.925 712.402 123.131 713.948 124.244C715.494 125.296 717.597 126.285 720.257 127.213C722.978 128.141 726.38 129.037 730.462 129.903C738.131 131.511 744.718 133.583 750.222 136.119C755.789 138.593 760.056 141.809 763.025 145.768C765.994 149.664 767.478 154.612 767.478 160.611C767.478 165.064 766.52 169.146 764.602 172.857C762.747 176.507 760.026 179.692 756.438 182.413C752.851 185.073 748.553 187.145 743.543 188.629C738.595 190.113 733.028 190.855 726.844 190.855C717.752 190.855 710.052 189.247 703.743 186.031C697.434 182.753 692.641 178.578 689.363 173.507C686.147 168.373 684.539 163.054 684.539 157.55H706.155C706.402 161.694 707.547 165.003 709.588 167.477C711.691 169.889 714.288 171.651 717.381 172.765C720.535 173.816 723.782 174.342 727.122 174.342C731.142 174.342 734.513 173.816 737.234 172.765C739.956 171.651 742.027 170.167 743.45 168.312C744.873 166.394 745.584 164.229 745.584 161.817Z" fill="#001C85"/>
<circle cx="170" cy="63" r="17" fill="#C4281A"/>
<path d="M798.445 108.672H793.383L793.336 105.625H797.859C798.547 105.609 799.188 105.5 799.781 105.297C800.375 105.078 800.852 104.766 801.211 104.359C801.57 103.938 801.75 103.422 801.75 102.812C801.75 102.047 801.617 101.438 801.352 100.984C801.102 100.531 800.664 100.211 800.039 100.023C799.43 99.8203 798.602 99.7188 797.555 99.7188H794.438V116.57H791.039V96.6953H797.555C799.102 96.6953 800.438 96.9219 801.562 97.375C802.703 97.8125 803.578 98.4844 804.188 99.3906C804.812 100.281 805.125 101.398 805.125 102.742C805.125 103.586 804.93 104.336 804.539 104.992C804.148 105.648 803.57 106.219 802.805 106.703C802.055 107.172 801.133 107.555 800.039 107.852C799.992 107.852 799.938 107.906 799.875 108.016C799.828 108.125 799.781 108.18 799.734 108.18C799.469 108.336 799.297 108.453 799.219 108.531C799.156 108.594 799.086 108.633 799.008 108.648C798.945 108.664 798.758 108.672 798.445 108.672ZM798.211 108.672L798.703 106.352C801.141 106.352 802.805 106.883 803.695 107.945C804.586 108.992 805.031 110.328 805.031 111.953V113.219C805.031 113.797 805.055 114.352 805.102 114.883C805.164 115.398 805.273 115.836 805.43 116.195V116.57H801.938C801.781 116.164 801.688 115.586 801.656 114.836C801.641 114.086 801.633 113.539 801.633 113.195V111.977C801.633 110.836 801.375 110 800.859 109.469C800.344 108.938 799.461 108.672 798.211 108.672ZM783.984 106.914C783.984 108.992 784.336 110.93 785.039 112.727C785.758 114.508 786.758 116.07 788.039 117.414C789.32 118.742 790.797 119.781 792.469 120.531C794.156 121.266 795.953 121.633 797.859 121.633C799.781 121.633 801.578 121.266 803.25 120.531C804.922 119.781 806.391 118.742 807.656 117.414C808.922 116.07 809.914 114.508 810.633 112.727C811.352 110.93 811.711 108.992 811.711 106.914C811.711 104.836 811.352 102.906 810.633 101.125C809.914 99.3438 808.922 97.7891 807.656 96.4609C806.391 95.1328 804.922 94.1016 803.25 93.3672C801.578 92.6172 799.781 92.2422 797.859 92.2422C795.953 92.2422 794.156 92.6172 792.469 93.3672C790.797 94.1016 789.32 95.1328 788.039 96.4609C786.758 97.7891 785.758 99.3438 785.039 101.125C784.336 102.906 783.984 104.836 783.984 106.914ZM781.219 106.914C781.219 104.43 781.648 102.125 782.508 100C783.367 97.875 784.562 96.0234 786.094 94.4453C787.625 92.8516 789.391 91.6172 791.391 90.7422C793.406 89.8516 795.562 89.4062 797.859 89.4062C800.156 89.4062 802.305 89.8516 804.305 90.7422C806.32 91.6172 808.086 92.8516 809.602 94.4453C811.133 96.0234 812.328 97.875 813.188 100C814.062 102.125 814.5 104.43 814.5 106.914C814.5 109.398 814.062 111.703 813.188 113.828C812.328 115.953 811.133 117.82 809.602 119.43C808.086 121.023 806.32 122.266 804.305 123.156C802.305 124.047 800.156 124.492 797.859 124.492C795.562 124.492 793.406 124.047 791.391 123.156C789.391 122.266 787.625 121.023 786.094 119.43C784.562 117.82 783.367 115.953 782.508 113.828C781.648 111.703 781.219 109.398 781.219 106.914Z" fill="#001C85"/>
</svg>
